<svg width="31" height="32" fill="none" xmlns="http://www.w3.org/2000/svg">
  <path d="M21.1016 12.9952c.6116-.3867 1.0199-.9117 1.2181-1.582-.5603.3108-1.1616.5365-1.7852.6703-.255-.2873-.5672-.5152-.9156-.6683-.3484-.1531-.7247-.2277-1.1037-.219-.7927 0-1.4606.2853-2.0073.8383-.2634.2632-.4716.5787-.612.9271-.1404.3484-.21.7225-.2046 1.0994 0 .2398.0291.455.0889.637-2.337-.084-4.2692-1.0745-5.79299-2.9855-.24995.4352-.3837.9301-.38779 1.435 0 1.0115.41688 1.813 1.24708 2.4028-.4363-.0303-.86131-.1549-1.24708-.3658 0 .7228.20671 1.3265.62358 1.8585.4151.525.9515.861 1.6041 1.0027-.2429.063-.4926.0942-.7431.0928-.171.01-.3424-.0119-.5057-.0647.1777.5897.5057 1.0657.9806 1.4315.4732.3675 1.0198.56 1.6348.5775-.9871.8039-2.2154 1.233-3.47641 1.2145-.32117 0-.54666-.0035-.68333-.0298 1.28064.8533 2.77904 1.2996 4.30674 1.2828 1.6246 0 3.0613-.4218 4.3084-1.2653 1.2471-.8382 2.1713-1.8725 2.7624-3.0922.5852-1.1786.8902-2.4822.89-3.8045v-.3658c.574-.4427 1.0404-.9415 1.3974-1.4945-.5082.2322-1.046.3895-1.5973.4672zM15.5 31.75c-4.2537 0-7.91812-1.5575-10.89233-4.6305C1.63346 24.0553.125 20.3137.125 16c0-4.354 1.51017-8.1095 4.48779-11.15625C7.58529 1.797 11.248.25 15.5.25c4.2128 0 7.8652 1.54525 10.8548 4.592C29.3546 7.8905 30.875 11.646 30.875 16c0 4.3137-1.5187 8.057-4.5168 11.1248C23.3669 30.1925 19.7145 31.75 15.5 31.75zm0-28c-3.3586 0-6.1295 1.16725-8.46992 3.57C4.68112 9.721 3.54167 12.5595 3.54167 16c0 3.402 1.14116 6.2335 3.49012 8.6537C9.37563 27.074 12.1448 28.25 15.5 28.25c3.3193 0 6.0817-1.1777 8.4426-3.5997 2.366-2.422 3.5157-5.2536 3.5157-8.6503 0-3.4353-1.148-6.27375-3.5106-8.67475C21.5851 4.919 18.8227 3.75 15.5 3.75z" fill="#fff"/>
</svg>