<svg width="32" height="32" fill="none" xmlns="http://www.w3.org/2000/svg">
  <path d="M16 31.75c-4.3558 0-8.11125-1.5575-11.158-4.6305C1.79525 24.0553.25 20.3137.25 16c0-4.354 1.547-8.1095 4.59725-11.15625C7.89225 1.797 11.646.25 16 .25c4.3155 0 8.057 1.54525 11.1195 4.592C30.1908 7.8905 31.75 11.646 31.75 16c0 4.3137-1.5575 8.057-4.627 11.1248C24.0588 30.1925 20.3172 31.75 16 31.75zm0-28c-3.4405 0-6.279 1.16725-8.6765 3.57C4.919 9.721 3.75 12.5595 3.75 16c0 3.402 1.169 6.2335 3.57525 8.6537C9.72625 27.074 12.563 28.25 16 28.25c3.4002 0 6.23-1.1777 8.6467-3.5997C27.0723 22.2283 28.25 19.3967 28.25 16c0-3.4353-1.176-6.27375-3.5963-8.67475C22.2335 4.919 19.4037 3.75 16 3.75zm-5.25 16.625c-2.41325 0-4.375-1.9618-4.375-4.375s1.96175-4.375 4.375-4.375c2.4132 0 4.375 1.9618 4.375 4.375s-1.9618 4.375-4.375 4.375zm0-7c-1.44725 0-2.625 1.1777-2.625 2.625s1.17775 2.625 2.625 2.625c1.4473 0 2.625-1.1777 2.625-2.625s-1.1777-2.625-2.625-2.625zm10.5 7c-2.4132 0-4.375-1.9618-4.375-4.375s1.9618-4.375 4.375-4.375 4.375 1.9618 4.375 4.375-1.9618 4.375-4.375 4.375z" fill="#fff"/>
</svg>