<svg xmlns="http://www.w3.org/2000/svg" fill="none" viewBox="0 0 16 15">
  <path fill="#fff" d="M1.86962 6.87681c-.35696-.35706-.63346-.7863-.81094-1.25895-.177493-.47266-.251874-.9778-.218162-1.48155.033713-.50376.174742-.99448.413632-1.43927.23888-.44479.5701-.83337.97146-1.13967.40135-.3063.86355-.52326 1.35561-.636309.49206-.113054 1.0026-.119595 1.49739-.019187.4948.100406.96241.305446 1.37147.601366.40907.29592.75014.67588 1.00035 1.1144h.93166c.2502-.43852.59128-.81848 1.00034-1.1144.40907-.29592.87667-.50096 1.37147-.601366.4948-.100408 1.0053-.093867 1.4974.019187.4921.113049.9543.330009 1.3556.636309.4014.3063.7326.69488.9715 1.13967.2389.44479.3799.93551.4136 1.43927.0337.50375-.0407 1.00889-.2182 1.48155-.1774.47265-.4539.90189-.8109 1.25895L7.91626 12.9251 1.86962 6.87681zm12.68158.59166c.4268-.42681.7607-.93732.9806-1.49941.2199-.5621.3211-1.16362.2973-1.76673-.0238-.60311-.1722-1.19477-.4357-1.73777-.2636-.543-.6367-1.02558-1.0958-1.41741-.4591-.391821-.9943-.684405-1.572-.85935-.5777-.1749442-1.1853-.2284637-1.7847-.1571926C10.3416.101879 9.76345.296399 9.24291.601934s-.97222.715476-1.32665 1.204036C7.56183 1.31741 7.11015.907469 6.58961.601934 6.06907.296399 5.49094.101879 4.89158.0306074 4.29222-.0406637 3.6846.0128558 3.10693.1878c-.57768.174945-1.1129.467529-1.57202.85935-.45911.39183-.832184.87441-1.095752 1.41741-.263567.543-.4119272 1.13466-.43574905 1.73777C-.0204129 4.80544.0808187 5.40696.300737 5.96906c.219919.56209.553767 1.0726.980543 1.49941l6.63498 6.63413 6.63494-6.63413z"/>
</svg>