<svg width="31" height="32" fill="none" xmlns="http://www.w3.org/2000/svg">
  <path d="M19.7076 10.9967c-.8746 0-1.6878.4165-2.4429 1.2513-.5313.546-.8542 1.1865-.9669 1.9267.3536-.2292.6611-.343.9242-.343.2716 0 .4954.1225.6714.371.3399.4865.3211 1.1008-.0564 1.8393-.8354 1.6345-1.4452 2.45-1.8211 2.45-.2665 0-.6081-.9135-1.0284-2.7422-.0964-.3846-.1723-.7743-.2272-1.1673-.0645-.4395-.1403-.8771-.2272-1.3125-.0769-.3693-.1896-.749-.3417-1.1357-.152-.3868-.3416-.6721-.5689-.8453-.1617-.1217-.3579-.1857-.5586-.182l-.2955.0368c-.4937.1172-1.0643.4287-1.7084.9344-.5728.4368-1.10672.9246-1.59554 1.4578l-.57058.7.5142.6982.28359-.2327c.11275-.0787.32283-.1768.62693-.2923l.3263-.0752c.1179 0 .1982.0437.2443.133.1128.1557.463 1.2548 1.0506 3.297.5911 2.0423.9601 3.2183 1.1105 3.5297.2665.5443.6269.9625 1.0813 1.2548.2221.14.463.2118.7295.2118.2819 0 .5911-.0823.9225-.2433 1.0267-.6982 2.202-1.8655 3.5311-3.5 1.3291-1.6327 2.144-3.3635 2.4481-5.1905.2665-1.5942-.188-2.5095-1.365-2.7423-.2256-.0585-.4575-.0879-.6902-.0875zM15.5 31.75C7.02154 31.75.125 24.6852.125 16 .125 7.31475 7.02154.25 15.5.25 23.9785.25 30.875 7.31475 30.875 16c0 8.6852-6.8965 15.75-15.375 15.75zm0-28C8.90754 3.75 3.54167 9.24675 3.54167 16c0 6.7533 5.36587 12.25 11.95833 12.25 6.5925 0 11.9583-5.4967 11.9583-12.25 0-6.75325-5.3658-12.25-11.9583-12.25z" fill="#fff"/>
</svg>