<svg width="32" height="32" fill="none" xmlns="http://www.w3.org/2000/svg">
  <path d="M12.5577 21.775H9.75775v-9.0982h2.79995v9.0982zm-1.4-10.2655c-1.0097 0-1.51545-.4673-1.51545-1.4-.00313-.18719.03436-.37282.10989-.54412.07553-.1713.1873-.32419.32756-.44813.2919-.27225.6791-.41873 1.078-.40775 1.0098 0 1.5156.469 1.5156 1.4017 0 .9328-.5041 1.3983-1.5156 1.3983zM22.9422 21.775h-2.8577V16.7c0-1.3213-.469-1.9827-1.4017-1.9827-.7385 0-1.2233.3692-1.4595 1.1077-.0753.1172-.1156.3518-.1156.7v5.25H14.25v-6.1827c0-1.4-.021-2.3713-.0577-2.9155h2.45l.1749 1.2232c.6423-.973 1.5751-1.4577 2.8578-1.4577.9747 0 1.7605.3395 2.3625 1.0202.6055.6808.9065 1.6625.9065 2.947v5.3655h-.0018zM16 31.75C7.31475 31.75.25 24.6852.25 16 .25 7.31475 7.31475.25 16 .25 24.6852.25 31.75 7.31475 31.75 16c0 8.6852-7.0648 15.75-15.75 15.75zm0-28C9.24675 3.75 3.75 9.24675 3.75 16c0 6.7533 5.49675 12.25 12.25 12.25 6.7533 0 12.25-5.4967 12.25-12.25 0-6.75325-5.4967-12.25-12.25-12.25z" fill="#fff"/>
</svg>