<svg width="31" height="32" fill="none" xmlns="http://www.w3.org/2000/svg">
  <path d="M15.5 31.75C7.02154 31.75.125 24.6852.125 16 .125 7.31475 7.02154.25 15.5.25 23.9785.25 30.875 7.31475 30.875 16c0 8.6852-6.8965 15.75-15.375 15.75zm0-28C8.90754 3.75 3.54167 9.24675 3.54167 16c0 6.7533 5.36587 12.25 11.95833 12.25 6.5925 0 11.9583-5.4967 11.9583-12.25 0-6.75325-5.3658-12.25-11.9583-12.25zM16.0723 9c-4.2162 0-6.34134 3.0975-6.34134 5.677 0 1.5663.57744 2.954 1.81594 3.472.2033.0857.3861.0035.4459-.2257l.1794-.7316c.0598-.2257.0358-.3062-.1265-.5057-.357-.4305-.5876-.9905-.5876-1.7832 0-2.296 1.6776-4.3523 4.3699-4.3523 2.3848 0 3.6917 1.4928 3.6917 3.4825 0 2.6215-1.1309 4.8335-2.8119 4.8335-.9276 0-1.6229-.7858-1.4008-1.7518.2665-1.1514.7841-2.394.7841-3.2252 0-.7455-.3912-1.3632-1.1958-1.3632-.9499 0-1.7118 1.0045-1.7118 2.352 0 .8575.2836 1.4384.2836 1.4384l-1.1429 4.9525c-.3382 1.4701-.0495 3.2726-.0256 3.4546.0137.1085.1486.1347.2101.0524.0888-.1172 1.2181-1.5487 1.6024-2.975.1094-.4025.6253-2.4972.6253-2.4972.3075.602 1.2078 1.1305 2.1661 1.1305 2.853 0 4.7885-2.6617 4.7885-6.23C21.6893 11.513 19.4599 9 16.0723 9z" fill="#fff"/>
</svg>