<svg width="31" height="32" fill="none" xmlns="http://www.w3.org/2000/svg">
  <path d="M26.3548 4.842C23.3652 1.79525 19.7128.25 15.5.25c-4.252 0-7.91471 1.547-10.88721 4.59375C1.63517 7.8905.125 11.646.125 16c0 4.3137 1.50846 8.0553 4.48267 11.1195C7.58188 30.1925 11.2463 31.75 15.5 31.75c4.2145 0 7.8669-1.5575 10.8582-4.6252C29.3563 24.057 30.875 20.3137 30.875 16c0-4.354-1.5204-8.1095-4.5202-11.158zm-2.4122 19.8083c-1.9424 1.9932-4.1615 3.1289-6.7343 3.4737V19.5h3.4167V16h-3.4167v-2.45c0-.138.0266-.2747.0782-.4022.0516-.1275.1273-.2434.2227-.3409.0953-.0975.2085-.1748.3331-.2275.1245-.0526.258-.0796.3927-.0794h2.39V9h-2.3865c-1.2676 0-2.3251.47775-3.1724 1.4385-.8473.9572-1.2744 2.1262-1.2744 3.514V16H10.375v3.5h3.4167v8.6275c-2.6001-.3412-4.82778-1.4788-6.75991-3.472C4.68283 22.2335 3.54167 19.402 3.54167 16c0-3.4405 1.13945-6.279 3.48841-8.68C9.3705 4.91725 12.1414 3.75 15.5 3.75c3.3227 0 6.0851 1.169 8.4477 3.57525 2.3626 2.401 3.5106 5.23945 3.5106 8.67475 0 3.3967-1.1497 6.2283-3.5157 8.6503z" fill="#fff"/>
</svg>