<svg width="11" height="7" viewBox="0 0 11 7" fill="none" xmlns="http://www.w3.org/2000/svg">
<mask id="path-1-inside-1" fill="white">
<path d="M0 0.678631L5.43 6.10863L10.86 0.678631L10.1814 0L5.43 4.75137L0.67863 0L0 0.678631Z"/>
</mask>
<path d="M0 0.678631L5.43 6.10863L10.86 0.678631L10.1814 0L5.43 4.75137L0.67863 0L0 0.678631Z" fill="white"/>
<path d="M0 0.678631L-1.17851 -0.49988L-2.35702 0.678631L-1.17851 1.85714L0 0.678631ZM5.43 6.10863L4.25149 7.28714L5.43 8.46565L6.60851 7.28714L5.43 6.10863ZM10.86 0.678631L12.0385 1.85714L13.217 0.678632L12.0385 -0.499879L10.86 0.678631ZM10.1814 0L11.3599 -1.17851L10.1814 -2.35702L9.00286 -1.17851L10.1814 0ZM5.43 4.75137L4.25149 5.92988L5.43 7.10839L6.60851 5.92988L5.43 4.75137ZM0.67863 0L1.85714 -1.17851L0.67863 -2.35702L-0.499881 -1.17851L0.67863 0ZM-1.17851 1.85714L4.25149 7.28714L6.60851 4.93012L1.17851 -0.499881L-1.17851 1.85714ZM6.60851 7.28714L12.0385 1.85714L9.68149 -0.499881L4.25149 4.93012L6.60851 7.28714ZM12.0385 -0.499879L11.3599 -1.17851L9.00286 1.17851L9.68149 1.85714L12.0385 -0.499879ZM9.00286 -1.17851L4.25149 3.57286L6.60851 5.92988L11.3599 1.17851L9.00286 -1.17851ZM6.60851 3.57286L1.85714 -1.17851L-0.499881 1.17851L4.25149 5.92988L6.60851 3.57286ZM-0.499881 -1.17851L-1.17851 -0.49988L1.17851 1.85714L1.85714 1.17851L-0.499881 -1.17851Z" fill="#1E1E1E" mask="url(#path-1-inside-1)"/>
</svg>
